<?xml version="1.0" encoding="UTF-8"?>
<svg data-bbox="9.105 0.081 19.408 37.403" height="50" viewBox="0 0 37.5 37.5" width="50" xmlns="http://www.w3.org/2000/svg" data-type="shape">
    <g>
        <defs>
            <clipPath id="5cee90ad-2540-4dd7-9929-6e04f4319dfa">
                <path d="M24 1h4.594v16H24Zm0 0"/>
            </clipPath>
            <clipPath id="b0eb096c-e56b-4ae6-8709-1270b483da1e">
                <path d="M9.094 11H15v13H9.094Zm0 0"/>
            </clipPath>
            <clipPath id="3581087e-0bd8-4ed5-b2f6-faa35589ba8a">
                <path d="M11 1h17.594v36.008H11Zm0 0"/>
            </clipPath>
        </defs>
        <g clip-path="url(#5cee90ad-2540-4dd7-9929-6e04f4319dfa)">
            <path d="m26.988 13.383.028-.5.187-.383s-.246-8.887-.262-9.508c-.011-.625-.12-1.144-.12-1.144s-.134.574-.18 1.129c-.051.554-.47 9.406-.45 9.476.02.067.192.453.192.453l-.024.465s-.683.168-1.218-.324c-.13-.14-.344.094-.258.187l.086.094s.61.387 1.379.332c-.032.578-.075 1.89-.075 1.89s-.316.028-.085.395c.23.367.722.336.917.07.22-.304-.16-.433-.16-.433l.051-1.89s.922-.02 1.48-.372c.118-.082-.074-.336-.214-.234-.14.105-.809.453-1.274.297"/>
        </g>
        <g clip-path="url(#b0eb096c-e56b-4ae6-8709-1270b483da1e)">
            <path d="M9.516 17.523c.062-.02.144.024.316.149-.012-.078.063-.176.152-.18a3.097 3.097 0 0 1 .055-.699c-.043-.86.024-1.613.184-2.14.011-.442.062-.708.16-.72h.012c.168-.874.464-1.519.867-1.812.09-.379.222-.598.39-.625.192-.027.41.215.637.66.813.63 1.43 2.664 1.844 5.078.414 2.422.305 4.504-.348 5.305-.09.488-.234.777-.43.805-.171.027-.367-.164-.566-.52-.43-.16-.863-.637-1.246-1.336a.035.035 0 0 1-.027.012c-.09.016-.207-.195-.336-.566-.328-.457-.63-1.196-.844-2.086a3.064 3.064 0 0 1-.293-.868c-.105.024-.191-.113-.191-.113s-.207.211-.258.215c-.051.008-.48-.168-.489-.223-.007-.062.352-.316.41-.336"/>
        </g>
        <path d="m15.86 5.441-.036-.043a.058.058 0 0 1 .012-.082l.121-.097c.008-.004.016-.008.023-.008.028-.23-.058-.563-.109-.832-.059-.313-.309-1.434.14-2.316l-.042-.024a.057.057 0 0 1-.02-.078l.031-.055a.055.055 0 0 1 .079-.023l.043.023a1.8 1.8 0 0 1 .148-.199l-.043-.035c-.023-.02-.027-.055-.004-.082l.043-.047c.02-.027.059-.027.082-.008l.043.04a1.49 1.49 0 0 1 .094-.087C16.695.113 17.988.11 18.27.09c.28-.016 1.39-.09 1.898.777.07.121-.617.07-.652.508.117.082.222.184.316.297l.043-.031a.06.06 0 0 1 .082.007l.04.051c.023.028.019.063-.009.082l-.047.035c.051.07.094.141.137.207l.05-.027c.028-.016.063-.004.079.027l.031.055a.067.067 0 0 1-.027.082l-.043.02c.113.215.176.379.176.379s.265.16.281.23l.023.098c.09-.004.165.031.172.09l.024.128c.008.055-.043.11-.121.137.03.149.062.332.062.465 0 .262-.23.563-.23.563s.175.351-.051.808c-.09.742-.125 1.336-.14 1.567-.02.226-.372.21-.337.035.035-.176.09-.649.09-.649l-.707.23s.125.473.16.614c.035.14-.336.387-.406.09-.07-.3-.332-.95-.332-.95s-.633-.214-.703-.3a19.96 19.96 0 0 1-.317-.442s-.39.036-.546-.21c-.442.085-.774.175-.774.175s-.14.457-.21.528c-.071.07-.512.02-.688.02-.172 0 .058-.184.265-.345"/>
        <g clip-path="url(#3581087e-0bd8-4ed5-b2f6-faa35589ba8a)">
            <path d="M11.27 16.02v.062c0 .031.03.055.066.055-.016.136-.016.273.129.343.035.016.078.032.125.047.004.028.004.055.012.086.035.239-.137.867-.192 1.008-.05.137-.11.309-.035.453.07.145.277.563.352.672.078.113.363.094.363.094s.082.043.242-.035c.176.043.211.015.383-.063a.565.565 0 0 0 .226-.176s.125-.015.215-.093c.063.05.13.062.215-.086.086-.145.176-.223.27-.336.093-.11.043-.406 0-.602-.043-.199-.09-.351-.254-.484-.149-.121-.305-.3-.614-.516a.686.686 0 0 0 .16-.262h.008a.067.067 0 0 0 .082-.035l.024-.062c.012-.027-.008-.059-.043-.07h-.008a.954.954 0 0 0 .04-.094c.015-.028.027-.059.038-.086h.004c.031.012.074 0 .09-.027l.031-.06c.016-.026 0-.062-.031-.073l-.02-.008c.079-.168.157-.34.235-.508a.066.066 0 0 0 .05-.039l.024-.059a.067.067 0 0 0-.008-.046l.07-.141h.008c.04.008.075-.008.082-.04l.02-.062c.008-.023-.004-.047-.027-.058.007-.016.011-.028.02-.04.023-.042.042-.085.066-.128h.03a.185.185 0 0 0 .122.078l.012.004.011-.012.016-.016a2.277 2.277 0 0 0-.008.286l.05-.004a2.183 2.183 0 0 1 .02-.39.337.337 0 0 0 .008-.11 2.68 2.68 0 0 0 .016-.184.008.008 0 0 0 .008-.008l.027-.058c.016-.024 0-.055-.027-.067v-.058l.035-.063.012.004a.07.07 0 0 0 .093-.012l.043-.05c.024-.024.016-.059-.015-.079l-.043-.027a.885.885 0 0 0 .054-.129c.04-.133.059-.312-.023-.437a.174.174 0 0 0-.024-.028c-.003-.132-.007-.242.137-.398.156-.168.766-.957.766-.957.234.781.398 1.367.527 1.844.09.336.203.492.203.738 0 .402-.058.672-.047.895.004.097-.054.3-.113.316-.215.047-.246.258-.273.484-.012.075.015.157.03.23a.138.138 0 0 0-.132.137c0 .04.016.075.043.098-.043.04-.098.082-.121.113-.148.18-.27.348-.25.59.086-.004.152-.02.242-.015-.023.078-.199.324-.23.39-.5 1.106-.188 1.59-.305 2.332-.062.399-.113.664-.133 1.07-.008.212.047.36.192.458.035.02.082.03.14.039-.125.972-.152 1.12-.246 1.855-.101.777-.055 1.692-.078 2.246-.004.04-.004.074-.004.11-.281.172-.34.41-.418.746-.09.363-.078.68-.129 1.023 0 .004 0 .008-.004.008-.086.004-.152.043-.168.102l-.03.125c-.013.058.026.12.093.16-.047.07-.102.144-.16.226-.414.574-.473 1.348-.438 1.864a4.99 4.99 0 0 0-.09.726c-.02.524 0 2.266.168 3.152-.054.02-.09.051-.093.09v.106c-.004.054.074.105.175.12.012.024.02.048.032.071 0 .13 0 .235-.004.32-.117 0-.215.079-.219.184l-.012.168a.2.2 0 0 0 .121.188l-.043.218a.652.652 0 0 0-.234.188.588.588 0 0 0-.04.066.393.393 0 0 0-.151.324v.004c-.004.004-.004.004-.008.004-.031.031-.055.067-.078.098-.032.039-.059.078-.102.105l.02.028a.383.383 0 0 0 .109-.114.486.486 0 0 1 .059-.074v.266c0 .086.023.164.062.226a.394.394 0 0 0-.035.133h.031a.28.28 0 0 1 .028-.097c.05.066.125.109.203.109h.011v.031c.004.04.008.074.02.106-.168 0-.3.054-.305.129l-.011.136c-.008.086.152.168.355.184l1.02.078c.164.062.335.121.488.14.445.06 1.308.067 1.746.024.101-.012.262.004.34-.07.078-.07.082-.242-.035-.274.046-.156.085-.375-.02-.527-.129-.18-.348-.172-.547-.191h-.043c-.004-.04-.015-.07-.043-.094l-.11-.09a.157.157 0 0 0-.03-.11c-.043-.046-.102-.054-.16-.05l-.141-.117c.004-.047-.004-.082-.02-.102-.027-.031-.074-.035-.14-.035l-.196-.16a.25.25 0 0 0-.148-.121c-.016-.004-.043-.012-.074-.016.097-.05.187-.004.285.05.043.024.086.048.133.067l.011-.031c-.043-.016-.086-.04-.129-.063-.109-.062-.226-.125-.355-.027a.71.71 0 0 0-.129 0l-.023-.059a1.415 1.415 0 0 1-.051-.218.186.186 0 0 0 .121-.164l.012-.168c.004-.094-.067-.18-.168-.203 0-.04.004-.079.004-.118.14.036.242.043.289-.105.035-.106.101-.195.164-.285l.054.031c.028.016.067.004.086-.023l.032-.059c.02-.027.007-.063-.024-.078l-.055-.031s.004-.004.004-.008c.02-.043.036-.086.055-.13l.047.013c.035.007.07-.012.078-.043l.02-.063a.058.058 0 0 0-.043-.07l-.032-.008c.024-.055.043-.113.067-.172l.043.02a.067.067 0 0 0 .082-.035l.027-.063c.012-.027-.004-.062-.035-.074l-.059-.02.07-.199.055.004c.036.004.067-.02.07-.05l.012-.063a.06.06 0 0 0-.054-.067l-.031-.004c.015-.043.03-.09.042-.132l.082.011c.036.004.067-.015.075-.047l.011-.066a.058.058 0 0 0-.05-.066l-.067-.012.059-.223.031.012a.069.069 0 0 0 .082-.031l.027-.063a.06.06 0 0 0-.03-.078l-.06-.02.036-.144.054.008c.036.004.067-.02.07-.051l.012-.066c.008-.032-.015-.059-.05-.067l-.043-.004.047-.18.058.016a.069.069 0 0 0 .078-.043l.02-.062a.058.058 0 0 0-.043-.07l-.07-.02c.02-.066.035-.133.05-.203h.063a.064.064 0 0 0 .066-.055v-.066c.004-.032-.023-.059-.058-.059h-.024l.035-.14.067.003c.035.004.066-.023.066-.054l.008-.067a.058.058 0 0 0-.059-.058l-.043-.004c.063-.27.118-.54.149-.817.043-.386.082-1.148.082-1.148s.332-.398.516-.656l.03-.047.052.023c.03.012.066 0 .082-.031l.03-.059c.017-.027.005-.062-.026-.078l-.043-.02c.023-.046.043-.093.062-.14l.023.004c.032.008.067-.016.075-.047l.015-.062c.008-.032-.015-.063-.047-.07h-.003c.02-.06.035-.114.054-.172l.02.007a.066.066 0 0 0 .078-.039l.023-.062c.012-.032-.007-.063-.039-.074l-.035-.008c.008-.04.02-.078.027-.114.008-.03.02-.062.028-.097h.035c.035.004.066-.02.066-.055l.008-.062a.058.058 0 0 0-.055-.063h-.003c.007-.047.02-.09.03-.137l.056.008c.035 0 .066-.023.07-.055l.008-.062c.007-.035-.02-.063-.051-.066l-.059-.004c.008-.137-.011-.266-.09-.364a.518.518 0 0 0-.105-.101l.047-.07c.36-.524.687-2.188.687-2.188s.301.91.426 1.254c.074.21.129.379.176.605-.211.223-.211.454-.211.786 0 .363.082.66.113 1 .016.183.047.347.059.515-.055.028-.094.07-.094.117v.13c0 .046.035.09.086.116 0 .02-.004.036-.008.055a9.496 9.496 0 0 0-.133.938 3.76 3.76 0 0 0 .016 1.007c.012.114.031.23.055.344.093.473.468 1.961.816 2.801-.078.027-.133.074-.125.121l.008.106c.008.054.086.097.187.097.028.149.051.29.07.418a.205.205 0 0 0-.105.184l.016.172c.008.078.07.14.148.168.004.054.008.109.008.16a.376.376 0 0 0-.258.113.267.267 0 0 0-.066.156.42.42 0 0 0-.063.282l.012.117a.364.364 0 0 0-.062.199h.035a.286.286 0 0 1 .031-.14l.02.163c.02.192.152.34.308.36 0 .02.004.039.012.058-.18 0-.32.063-.328.145l-.012.144c-.008.094.156.184.363.2l2.22.172a.649.649 0 0 0 .108 0c.22.078.579.19.747.214.386.055.808.032 1.195-.007.09-.012.226 0 .297-.067.066-.07.07-.234-.032-.265.04-.153.075-.36-.015-.508-.113-.176-.309-.164-.48-.184a.892.892 0 0 0-.145 0 .246.246 0 0 0-.121-.191l-.66-.399a.194.194 0 0 0-.047-.129c-.047-.062-.235-.214-.352-.207-.02-.015-.039-.035-.062-.047a.61.61 0 0 1 .144.008.76.76 0 0 0 .211.004l-.008-.05a.652.652 0 0 1-.195-.005.637.637 0 0 0-.21 0 .476.476 0 0 0-.048-.027c-.039-.02-.078-.05-.12-.082-.071-.055-.145-.113-.227-.121a.259.259 0 0 0-.18.063.328.328 0 0 0-.184-.043l-.136.015c-.016-.02-.032-.035-.047-.054a64.74 64.74 0 0 1-.012-.012.491.491 0 0 1 .012-.04c.027-.109.054-.222-.004-.284-.008-.016-.024-.024-.04-.032v-.011l-.015-.168c-.008-.09-.086-.16-.18-.176l-.003-.133c.156.004.269-.004.28-.168.012-.152.09-.285.13-.422h.011a.066.066 0 0 0 .078-.039l.02-.066a.052.052 0 0 0-.039-.07l-.035-.008a1.51 1.51 0 0 0 .027-.157h.02c.035.004.062-.023.066-.054l.004-.067c0-.035-.027-.058-.059-.062h-.007c.007-.059.015-.117.02-.176l.026.004c.032.004.067-.02.07-.05l.012-.067c.008-.032-.015-.063-.05-.067l-.043-.004c.008-.074.011-.144.015-.214l.043-.004c.035-.004.063-.036.059-.067l-.004-.066a.06.06 0 0 0-.066-.051l-.02.004c0-.047 0-.094.004-.14l.074-.008a.064.064 0 0 0 .063-.063l-.004-.066c0-.032-.031-.055-.063-.051l-.066.004c.004-.078.004-.157.008-.23l.027.003c.031.004.066-.02.07-.05l.016-.067c.008-.031-.016-.063-.05-.066l-.063-.008c0-.051.004-.102.004-.149l.054-.008c.035-.003.063-.03.059-.062l-.004-.066c0-.032-.031-.055-.063-.055l-.046.008v-.188l.066.004a.068.068 0 0 0 .066-.058l.004-.067c0-.035-.023-.058-.058-.062h-.074v-.207l.066-.016a.064.064 0 0 0 .05-.07l-.011-.067c-.008-.031-.04-.05-.074-.043l-.031.008v-.14l.078-.016c.03-.008.054-.04.05-.07l-.007-.063c-.004-.035-.036-.055-.07-.047l-.055.008a6.156 6.156 0 0 0-.043-.594c-.047-.379-.184-1.11-.184-1.11s.215-.437.336-.726l.047.012c.031.008.066-.016.074-.047l.02-.062a.058.058 0 0 0-.043-.07l-.04-.009c.012-.05.024-.101.032-.156h.015c.032 0 .063-.027.063-.058v-.067c0-.031-.023-.05-.05-.054l.01-.18h.013a.062.062 0 0 0 .07-.055l.008-.066a.057.057 0 0 0-.051-.063h-.031c0-.054 0-.11.004-.16v-.058l.035-.004c.031-.008.058-.036.054-.07l-.007-.063c-.004-.031-.035-.055-.07-.051h-.008a.798.798 0 0 0 0-.137l.062-.008c.035-.003.063-.03.059-.066l-.004-.062a.06.06 0 0 0-.067-.055l-.062.008c-.024-.14-.07-.27-.172-.352a.685.685 0 0 0-.137-.078c.031-.062.067-.137.113-.227.27-.53.516-1.867.516-3.27 0-.257-.008-.51-.023-.75.039-.015.078-.03.113-.046.312-.156-.125-1.598-.27-2.215-.078-.324-.296-.949-.296-.949s-.075-.605-.07-.914c.53.191.167-.406.023-.684.05-.02.082-.07.082-.125a.13.13 0 0 0-.11-.129c.035-.117.098-.242.047-.367-.039-.094-.187-.133-.3-.18.003-.042.011-.085.019-.132.121-.801-.09-1.399-.09-1.399s.063.024.172.059c0 .039.004.074.016.11.039.105.129.148.226.187a.062.062 0 0 0 .016.086l.058.035c.028.02.063.012.079-.02l.02-.027h.003c.012.113.031.219.059.305l.046-.016a1.555 1.555 0 0 1-.05-.262c.027.012.054.02.082.032l-.004.027a.06.06 0 0 0 .035.078h.008c0 .004 0 .008.004.008.039.113.086.14.12.14.005 0 .012 0 .016-.003.051-.012.082-.079.094-.157.024.008.043.016.067.02a.064.064 0 0 0 .035.074l.062.024c.028.011.063-.008.074-.04l.004-.011c.059.015.117.027.176.039v.004c-.004.035.016.066.05.07l.063.012c.032.004.063-.016.067-.051v-.004c.058.012.117.02.176.027 0 .032.023.055.054.059h.067c.023.004.047-.012.054-.04.309.036.621.052.934.067.035 0 .066.004.102.008.003.02.015.04.035.047l.062.023a.06.06 0 0 0 .078-.035l.004-.02c.059.009.117.016.18.024l-.004.028c-.008.03.016.062.047.07l.066.012a.06.06 0 0 0 .067-.055l.004-.027c.058.007.113.015.168.027v.016c0 .035.023.066.054.066l.067.004c.035 0 .062-.024.062-.059.047.008.09.012.133.012l.023.086c.028.078.07.195.168.21a.767.767 0 0 0 .223-.042c.02.05.05.086.09.094a.135.135 0 0 0 .144-.067s.004-.004.004-.008c.004.016.004.028.008.043.016.09.035.215-.008.254l.035.04c.063-.06.04-.196.02-.301a.188.188 0 0 0-.008-.051.262.262 0 0 0 .082-.04c.008-.007.012-.015.02-.023.16.012.402.035.582.059.265.039.441.144.68.043.16-.07.476-.055.374-.399.13.004.387-.265.235-.472.168-.074.172-.508-.04-.512-.007-.2-.034-.312-.214-.418-.356-.21-.856-.18-1.274-.168-.242.008-.41.04-.613.156-.058.036-.246.086-.32.141a1.003 1.003 0 0 0-.203-.11v-.003a.06.06 0 0 0-.035-.078l-.059-.028c-.031-.011-.066.008-.078.04v.003c-.035-.012-.067-.027-.094-.039-.031-.015-.062-.027-.09-.043a.067.067 0 0 0-.023-.086l-.059-.031c-.027-.016-.062-.004-.078.023l-.008.016c-.175-.078-.347-.16-.52-.242-.003-.024-.015-.043-.034-.05l-.063-.024a.065.065 0 0 0-.047.004c-.047-.024-.097-.047-.144-.075l.004-.008a.066.066 0 0 0-.04-.078l-.062-.02a.058.058 0 0 0-.066.024.15.15 0 0 0-.04-.02 2.019 2.019 0 0 0-.128-.066.067.067 0 0 0-.024-.07l-.058-.035a.051.051 0 0 0-.078.02l-.004.003a2.655 2.655 0 0 1-.176-.09l.015-.03c.016-.032 0-.067-.027-.083l-.058-.031c-.032-.012-.067 0-.079.031l-.011.02a1.018 1.018 0 0 0-.11-.067l.008-.008c.02-.027.016-.066-.008-.085l-.05-.047c-.028-.02-.063-.016-.082.008l-.032.039c-.043-.02-.09-.04-.133-.055-.136-.047-.32-.07-.457 0-.027.012-.05.031-.074.05a4.53 4.53 0 0 0-.363-.046c.031-.309-.012-.809-.395-1.465.032-.082.07-.191.082-.371.02.004.04 0 .055-.016l.043-.05c.023-.024.02-.06-.004-.083l-.004-.004a.805.805 0 0 0 .114-.214.874.874 0 0 0 .207-.32v.003a.062.062 0 0 0 .074-.043l.015-.062a.058.058 0 0 0-.043-.07l-.007-.004c.004-.043.007-.082.007-.13-.003-.011-.003-.023-.003-.034a.055.055 0 0 0 .046-.055V9.44c0-.03-.027-.058-.062-.058l-.004.004c-.008-.055-.02-.106-.031-.16a.058.058 0 0 0 .043-.07l-.02-.063c-.008-.031-.039-.047-.07-.04a2.108 2.108 0 0 0-.05-.167c.015-.016.023-.035.019-.055l-.016-.066a.058.058 0 0 0-.063-.043c-.023-.063-.05-.121-.07-.172.024-.016.031-.043.02-.07l-.028-.06a.054.054 0 0 0-.066-.03l-.031-.067s-.012-.039-.047-.097c.02-.02.023-.043.008-.067l-.032-.058c-.015-.028-.054-.036-.082-.02a1.027 1.027 0 0 0-.234-.191c-.043-.106-.184-.364-.57-.543a.338.338 0 0 0-.067-.028c.008-.03-.008-.062-.035-.07l-.062-.023c-.028-.012-.063.003-.075.035a2.426 2.426 0 0 0-.18-.04c0-.03-.019-.054-.046-.058l-.067-.012a.063.063 0 0 0-.066.04c-.059-.008-.117-.012-.176-.02a.055.055 0 0 0-.054-.047l-.067-.004c-.027-.004-.047.016-.055.04a4.091 4.091 0 0 0-.5 0 3.49 3.49 0 0 1-.203-.06c-.101-.433-.011-.777.133-.956.149-.176.418-.098.695-.266.282-.168.137-.477.137-.477s.168-.644.145-1c.226-.156.035-.324-.102-.535.215-.21.012-1.066-.27-1.457-.277-.39-.886-.68-1.546-.601-.664.078-1.371.336-1.719.945-.348.613-.234 1.101-.156 1.523.054.305.234.582.332.813-.121-.004-.25.004-.317-.07-.066.12-.14.246-.207.316-.16.172-.336.492-.562.598-.227.105-.227.113-.25.136-.024.028.258-.035.43-.183.171-.145.308-.282.308-.282s-.234.32-.332.375c-.098.055-.281.141-.289.157a1.58 1.58 0 0 0 .328-.11c.043-.03.145-.109.145-.109s-.106.238-.086.406c.008.028.125-.484.312-.61.004 0-.16.481-.144.618.008.012.062-.113.062-.113s.024.183.031.136c.043-.222.106-.359.106-.359s-.004.137.035.25a3.2 3.2 0 0 1-.476.352 10.36 10.36 0 0 0-.293-.035.054.054 0 0 0-.051-.047l-.067-.008a.06.06 0 0 0-.062.039c-.059 0-.117-.004-.176-.004-.008-.027-.031-.05-.059-.05h-.066c-.031 0-.05.023-.055.05-.062.004-.125.008-.183.016l-.004-.004a.052.052 0 0 0-.066-.043l-.067.011a.06.06 0 0 0-.043.067.412.412 0 0 0-.074.02c-.406.12-.582.35-.64.449a.997.997 0 0 0-.262.16v-.004c-.028-.02-.063-.016-.082.012l-.043.05a.06.06 0 0 0-.004.067c-.043.054-.059.09-.059.09s-.016.02-.039.058c-.027-.008-.059 0-.074.024l-.035.054c-.016.024-.008.055.011.075a1.834 1.834 0 0 0-.093.156.059.059 0 0 0-.07.035l-.024.062a.062.062 0 0 0 .008.059c-.024.05-.051.102-.075.156a.06.06 0 0 0-.078.032l-.023.058c-.016.027 0 .063.027.074a2.32 2.32 0 0 0-.05.153h-.008a.055.055 0 0 0-.067.047l-.011.062a.056.056 0 0 0 .039.063.72.72 0 0 0-.02.164h-.012a.058.058 0 0 0-.05.066l.007.063a.057.057 0 0 0 .063.05h.004c.027.133.082.25.156.344.016.086.043.16.078.234h-.004c-.027.02-.035.055-.015.082l.035.055c.02.027.054.035.082.016.015.02.035.039.05.058-.105.118-.23.172-.312.317-.246.418-.187.66-.21 1.094-.024.433-.06.53-.321 1.078-.051.101-.102.207-.153.316a.338.338 0 0 0-.125.024c-.109.042-.152.132-.19.226a.073.073 0 0 0-.09.024l-.036.054a.048.048 0 0 0 .024.074l.03.016a3.077 3.077 0 0 0-.054.14l-.027-.003c-.035-.008-.075.008-.082.039l-.02.062c-.012.028.012.059.047.067l.023.008-.046.156c-.032-.004-.063.011-.075.039l-.02.062c-.01.028.009.059.044.07l.012.005c-.012.054-.02.113-.032.168h-.004c-.039 0-.07.02-.074.05l-.008.063c-.004.031.024.058.059.062h.004c-.008.055-.012.114-.02.168-.03.004-.058.028-.058.055v.062c0 .028.02.047.047.055-.02.297-.016.594-.016.899 0 .03 0 .062-.004.093-.02.008-.039.02-.047.04l-.023.062c-.012.027.008.059.043.066l.02.008a4.358 4.358 0 0 0-.012.172l-.032-.004c-.035-.004-.07.02-.074.05l-.008.063c0 .032.024.059.063.063h.031c-.008.055-.012.11-.02.164h-.02c-.038.004-.065.027-.065.059Zm14.636-.645v-.02h.035a.137.137 0 0 1-.035.02Zm-.101-.012.039-.015c0 .011-.004.02-.004.027-.016-.004-.024-.008-.035-.012Zm-.133.043a.854.854 0 0 0 .074-.023c.012.008.024.015.031.023.016.004.028.012.04.016-.016.027-.047.055-.094.043-.02-.004-.035-.024-.051-.059Zm-3.64-.597a.054.054 0 0 0 .066-.04l.007-.023c.016.008.032.012.051.02-.011.066-.035.113-.058.12-.016.005-.04-.015-.067-.077ZM16.198 6c.004 0 .004.063.028.14l-.067.067A.358.358 0 0 1 16.2 6Zm4.93 28.875a1.31 1.31 0 0 1-.082-.14.187.187 0 0 0 .082-.11c.004.004.008.004.012.008.039.043.015.144-.012.242Zm.93.336a.263.263 0 0 0-.043.027l-.063-.035a.274.274 0 0 0-.258-.008.396.396 0 0 0-.105-.144.201.201 0 0 1 .133-.043c.066.008.132.058.199.11.043.03.086.066.129.089.004 0 .004 0 .008.004Zm.128.086a.136.136 0 0 0-.035.023l-.09-.054c.016-.008.032-.02.051-.024.024.016.047.035.075.055Zm.11.11-.102-.06c.012-.003.02-.011.032-.015.027.023.046.05.07.074Zm.289.175-.195-.117a.405.405 0 0 0-.09-.13.66.66 0 0 1 .254.18.15.15 0 0 1 .03.067Zm-3.047-.5v.082l-.105.012a.27.27 0 0 0-.176.086.216.216 0 0 1 .047-.075.346.346 0 0 1 .234-.105Zm-4.574.445a.32.32 0 0 0-.047.078c-.012-.027-.023-.054-.035-.078h.082Zm.258.086c-.063-.008-.141.02-.211.078a.503.503 0 0 0-.063-.066.228.228 0 0 1 .055-.094h.004a.58.58 0 0 1 .113.016c.047.02.078.039.102.066Zm.379.293-.09-.074c.035 0 .062.008.074.02a.101.101 0 0 1 .016.054Zm.332.278-.121-.102c.035.004.07.012.093.043a.12.12 0 0 1 .028.059Zm-2.704-.782c-.003.059-.007.114-.003.172h-.13a.192.192 0 0 0-.081.016.085.085 0 0 1 .011-.02.647.647 0 0 1 .203-.168Zm.684-21.168v-.004.004Zm-.152.286.035-.051a.057.057 0 0 0-.027-.078l-.004-.004c.027-.055.054-.114.086-.168a.493.493 0 0 1 .046.172c0 .011 0 .027-.003.039 0 .015-.004.035-.004.05a.229.229 0 0 1-.055.094.109.109 0 0 1-.074-.054Zm-1.172 3.082s.02-.063.113-.153c.106.059.418.09.457.117.043.028.149.274.149.274l-.114.156c-.101-.16-.27.078-.27.078s-.077-.101-.148-.008c-.195-.308-.187-.464-.187-.464"/>
        </g>
    </g>
</svg>
