<?xml version="1.0" encoding="UTF-8"?>
<svg data-bbox="3.801 2.597 30.358 31.361" height="50" viewBox="0 0 37.5 37.5" width="50" xmlns="http://www.w3.org/2000/svg" data-type="shape">
    <g>
        <defs>
            <clipPath id="81d8f70c-54bc-4548-b46d-28b7861861a1">
                <path d="M3 2.508h31.875V34H3Zm0 0"/>
            </clipPath>
        </defs>
        <path d="M25.496 7.242a.359.359 0 0 0-.43.113c-.253.286-.515.696-.78 1.22-.102.218-.45.152-.466-.09-.254-2.266 1.196-4.169 2.746-3.567.504.215.801.594.895 1.133.293 1.644.102 4.191-2.461 7.004-.188.207-.531-.032-.398-.282.015-.027 1.363-2.68 1.171-5.171-.011-.184-.101-.305-.277-.36Zm0 0"/>
        <path d="M4.504 8.57c1.101-1.125 3.422.95 3.418 1.047.172.192-.063.5-.293.383-.32-.137-1.203-.453-1.477-.008a.519.519 0 0 0-.05.535c.93 2.063 3.191 3.16 3.214 3.172.262.125.121.531-.16.465-1.629-.387-2.898-1.059-3.773-2-.715-.762-1.86-2.715-.88-3.594Zm0 0"/>
        <path d="M27.988 10.867c.114-.3.567-.14.465.168-.02.055-.469 1.285-1.797 2.367-.246.203-.558-.183-.308-.386 1.21-.985 1.636-2.13 1.64-2.149Zm0 0"/>
        <path d="M22.629 8.262a.25.25 0 0 1-.18-.059.23.23 0 0 1-.086-.168c-.097-1.086.301-2.363.317-2.414a.235.235 0 0 1 .12-.144.24.24 0 0 1 .333.105.24.24 0 0 1 .015.188c-.003.011-.382 1.234-.296 2.222a.227.227 0 0 1-.055.18.24.24 0 0 1-.168.09Zm0 0"/>
        <path d="m9.113 4.402.207.059c.309.094.176.559-.133.476L8.98 4.88c-.308-.094-.18-.559.133-.477Zm0 0"/>
        <path d="M6.527 15.645c1.067.527 1.926.507 1.946.507.16-.004.246.075.254.239a.25.25 0 0 1-.082.191.241.241 0 0 1-.196.066c-.195 0-1.07-.03-2.136-.558-.286-.149-.079-.582.214-.445Zm0 0"/>
        <path d="M5.137 14.82c.277.22-.04.64-.324.434-.278-.223.039-.645.324-.434Zm0 0"/>
        <g clip-path="url(#81d8f70c-54bc-4548-b46d-28b7861861a1)">
            <path d="M4.156 16.887a.234.234 0 0 1 .125-.14c.16-.259 3.14 1.495 4.098 2.468a9.202 9.202 0 0 1 1.559-1.766c-.083-.465.43-1.18.648-1.484a.763.763 0 0 1-.227-.461.805.805 0 0 1 .106-.5c.598-.996 1.355-1.5 1.887-1.75.843-.426 1.753.043 2.418.59.457-.297.96-.5 1.507-.485-.175-.433-.113-2.218-.132-2.859-.012-.324-.489-.32-.493.004l.008 1.082c0 .09-.031.164-.094.223a.275.275 0 0 1-.226.082c-.387-.028-.824 0-1.23.234-4.575 2.637-7.481-4.066-3.797-4.621 1.367-.203 1.55-.77 1.574-1.063a.81.81 0 0 0-.106-.503.782.782 0 0 0-.379-.34c-.195-.125-.68-.121-.593-.47.132-.358.574-.058.796.017 1.141.503 1.153 2.14-.23 2.523-1.734.484-1.719 1.848-.492 1.922 1.523.082 3.004-.942 3.762-2.945.07-.141.175-.176.32-.114l.687.356c.036.015.067.011.09-.016.024-.031.028-.059.008-.094l-.598-.898a.227.227 0 0 1 .02-.223c1.64-2.652 3.492-2.914 3.726-2.937.618-.153 1.52-.215 1.793.136.418.762 1.02 3.133.84 4.883a1.38 1.38 0 0 0 .18.832c.473.817.703 1.88.363 2.547-.219.973.192.824.203 1.48-.011.348-.035.856-.035.86.5-.23 1.11-.125 1.445.266.07.082.102.175.09.28a.363.363 0 0 1-.144.259c-.23.175-.707.535-1.094 1.004-.059.074-.059.14.008.21.066.067.133.07.207.012.453-.37 1.062-.832 1.613-1.129a.556.556 0 0 1 .613.028c.297.21.875.8.36 1.031-1.074.352-2.457 1.086-4.188 2.5a.34.34 0 0 1-.254.082.375.375 0 0 1-.246-.11c-.277-.269-.718-.234-1.039.083-.945.941.188 1.859.907 1.18 1.593-1.715 3.832-2.876 5.152-3.305.426-.141.805-.055 1.137.246.351.32.648.73.714 1.215.137.82-.418 1.265-1.066 1.171.461.997 1.035 2.832.059 4.43.394.102.984.406 1.586 1.266.34.09.664.21.98.367.383-.586 1.68-2.895 1-5.961-.746-2.844-2.129-8.145 1.113-14.398a.234.234 0 0 1 .22-.13c.097 0 .17.044.218.13 3.242 6.253 1.86 11.55 1.117 14.398-.707 2.711.648 5.39.734 5.555l.633.972c.04.059.051.118.035.184-.004.031-.14.68-.804 1.176.629.379.55 1.195.293 1.648.351.563.16 1.281-.266 1.64.555.962 0 1.708-.863 1.583v1.176a.76.76 0 0 1-.227.558.752.752 0 0 1-.555.23h-.628a.74.74 0 0 1-.555-.23.764.764 0 0 1-.23-.558V31.09a1.034 1.034 0 0 1-.852-.574 13.854 13.854 0 0 1-2.227-.856 2.16 2.16 0 0 1-1.027-1.031 10.27 10.27 0 0 1-1.332-.488c.512 1.308-.16 3.132-.524 3.66a.248.248 0 0 1-.156.11.236.236 0 0 1-.191-.036c-.016-.012-.192-.133-.45-.324a.637.637 0 0 1-.273-.535 4.598 4.598 0 0 0-.52-2.106.239.239 0 0 0-.14-.12.249.249 0 0 0-.297.348c.957 1.878-.086 3.905-.105 3.893a.222.222 0 0 1-.262.114 4.196 4.196 0 0 1-.926-.344c-.27-.137-.394-.356-.375-.66.055-.77-.062-1.633-.504-2.34a.233.233 0 0 0-.16-.11.238.238 0 0 0-.191.04c-.125.097-.145.21-.059.343.77 1.297.664 3.52-1.078 3.785-2.07-.605-1.54-2.988-.95-3.863.184-.266-.202-.55-.398-.289-.039.059-.765 1.098-.593 2.64.039.333-.09.571-.383.723-.328.168-.664.278-.824.2-.778-.461-1.645-2.11-.43-4.45.055-.101.047-.195-.031-.28a.231.231 0 0 0-.176-.08.228.228 0 0 0-.176.075c-.047.05-.852.832-.867 2.469-.012.582-.637.61-1.012.644-.07.477-.52 2.356-.906 2.309-5.719-3.02-9.297-10.734-7.766-17.07ZM31.66 5.37v16.816c0 .165.05.31.145.438a.707.707 0 0 0 .379.258l.3.082c-.351-1.13-.66-2.793-.21-4.508.687-2.637 1.937-7.418-.614-13.086Zm-.851 27.145a.27.27 0 0 0 .086.207c.054.058.125.09.207.09h.628a.287.287 0 0 0 .207-.09.286.286 0 0 0 .086-.207v-1.23l-1.214-.138Zm-.98-2.48a.603.603 0 0 0 .167.378c.102.11.227.168.371.184l2.305.261c.621.016.465-.64.176-1.011a.238.238 0 0 1-.04-.192.233.233 0 0 1 .11-.16c.305-.2.625-.7.23-1.238a.235.235 0 0 1 0-.274c.004-.004.29-.453.168-.808-.168-.422-.82-.586-1.804-.617-.36 0-.715.039-1.063.113-.363.07-.594.473-.422.805.93-.301 1.977-.012 2.024.003.308.094.18.56-.133.477-.012-.004-1.023-.281-1.828.02-.082.144-.274.527-.16.878.957-.19 1.965.125 2.008.137.265.082.199.488-.075.485-.097.003-.98-.325-1.902-.122a1.5 1.5 0 0 0-.133.68Zm.273-3.766c1.054-.383 2.441-.137 2.707-.036.523-.285.785-.761.836-.949l-.38-.582c-1.316 1.317-2.816 1.012-3.703 0l-.378.582c.07.203.293.68.918.985Zm-.649 2.707c-.144-.48.055-.954.18-1.192-.227-.37-.227-.738.004-1.11h-.215a.54.54 0 0 0-.395.165.535.535 0 0 0-.172.394l-.027 1.16a.554.554 0 0 0 .184.434.531.531 0 0 0 .441.149ZM15.414 15.23c-1.492-1.882-2.894-2.43-4.527.032a.269.269 0 0 0-.02.25c.031.086.09.14.176.172.84.273 1.629.648 2.371 1.125.68.402 1.117.386 1.867-.22.66-.53.246-1.202.133-1.359Zm6.336-2.207c-.148.153-.32.274-.512.368v1.53c.602-.597.516-1.116.512-1.898Zm-2.227 2.258-.074-1.761a3.4 3.4 0 0 1-1.137-.957 1.303 1.303 0 0 1-.28-.958l.1-1.074a.228.228 0 0 1 .177-.21.232.232 0 0 1 .261.077c.399.512.89.91 1.473 1.2.613.308 1.254-.176 1.566-.657.297-.714-.004-1.558-.28-2.058a7.109 7.109 0 0 1-.618 1.648.248.248 0 0 1-.191.13.23.23 0 0 1-.211-.087c-.094-.129-.68-1.804-2.332-2.058a1.07 1.07 0 0 0-.485.03 1.09 1.09 0 0 0-.43.231 1.105 1.105 0 0 0-.292.387 1.12 1.12 0 0 0-.11.477c-.008.007.004 2.968 0 2.976-.117 1.41 2.29 2.59 2.863 2.664Zm3.809 12.871c.211-.289-.21-.605-.426-.328-.207.29.211.61.426.328Zm-.492-3.37c.027.44.14.96.453 1.413.504.317.918.727 1.246 1.227.477.254.977.465 1.492.633-.41-2.215.969-3.36 1.563-3.742-.797-1.04-1.45-.958-1.48-.954-.009 0-.673.118-1.016.668-.172.278-.586.012-.414-.261.37-.598 1-.809 1.246-.875 1.164-1.559.472-3.47-.063-4.496-1.691-.18-3.355.312-4.855 1.445-.516.387-.825 1.535.062 1.988.418.176.848.297 1.297.367 1.598.235 2.594-1.425 2.336-2.91-.02-.164.05-.258.211-.277.164-.024.254.047.277.207.192 1.34-.343 2.734-1.558 3.289-.067.59-.235 1.254-.621 1.723a.749.749 0 0 0-.176.554Zm-1.617 5.093c.285.21.601-.21.324-.43-.285-.21-.602.211-.324.43Zm-2.676 1.027c.285.207.598-.215.32-.433-.281-.207-.597.21-.32.433Zm-1.25-3.757c1.312 3.964 4.262.82 3.785-1.704-.18.016-.355.012-.531-.007-.778-.079-1.953.207-2.836.472-.05.016-.75.258-.418 1.235Zm-1.61 2.843c.286.211.602-.21.325-.43-.285-.21-.602.212-.325.43Zm-.105-5.77c.098.489.324.75.492.884.696.117 1.403-.133 2.047-.403a4.463 4.463 0 0 1 2.762-.222c1.21.285 2.129-.645 2.234-1.813-.894.148-1.672-.14-2.574-.523-.5-.227-.984-.196-1.453.093a7.02 7.02 0 0 1-2.707.98h.004s-.965.188-.805 1.005Zm-1.61-4.929c-.038-.332.438-.394.485-.074.125.902-.082 1.691-.598 2.328.332.785.809 1.187 1.461 1.223 1.48.078 2.723-.473 3.508-.95.461-.316.676-.757.64-1.32-.6-.058-2.241-1.012-.312-3.297.184-.21-.082-.512-.312-.363-.5.355-.86.828-1.07 1.41a.363.363 0 0 1-.223.23.349.349 0 0 1-.317-.023c-.367-.21-.75-.39-1.14-.547l-.446.309c-.484.351-1.136.219-1.52-.227l-.753.817a.878.878 0 0 1-.629.293.887.887 0 0 1-.656-.235 3.824 3.824 0 0 0-.531-.406 2.951 2.951 0 0 0-1.172.867 2.969 2.969 0 0 0-.625 1.324 12.66 12.66 0 0 1 1.226 1.75c1.63-.007 3.305-1.32 2.985-3.109Zm-.402 8.863c.207-.285-.21-.605-.425-.328-.207.29.21.61.425.328Zm-.023-3.5a.812.812 0 0 0-.09-.703 3.358 3.358 0 0 1-.512-1.617c-.52.32-1.086.504-1.691.55.527.997.93 2.044 1.215 3.138 0 0 .816-.555 1.078-1.368Zm-3.985 4.793c.286.211.602-.21.325-.43-.285-.21-.602.212-.32.43Zm-.765-4.675c.207-.286-.211-.606-.43-.325-.207.285.211.606.43.325Zm-.64 5.503c.812-3.77-1.747-6.64-3.692-8.214.457 2.882 1.754 6.011 3.695 8.214Zm-1.762-8.941c-.286-.207-.602.211-.325.434.285.207.602-.215.325-.434Zm4.43 11.328c.488.344.808.559 1 .688 1.241-2.856.292-7.461-.708-9.614-1.836-4.125-5.578-5.996-6.57-6.43-.094.395-.16.794-.203 1.196 4.922 2.453 7.765 8.313 6.48 14.164Zm0 0"/>
        </g>
    </g>
</svg>
