<?xml version="1.0" encoding="UTF-8"?>
<svg data-bbox="9.382 0 18.693 37.416" height="50" viewBox="0 0 37.5 37.5" width="50" xmlns="http://www.w3.org/2000/svg" data-type="shape">
    <g>
        <defs>
            <clipPath id="3cd7cd3a-cdb4-4cb4-a649-1278ef89ed2e">
                <path d="M9.36 16H14v10H9.36Zm0 0"/>
            </clipPath>
            <clipPath id="5852145e-4f38-42ae-8ef4-934ff469d3bc">
                <path d="M10 9h18.11v28.008H10Zm0 0"/>
            </clipPath>
        </defs>
        <path d="M27.492 10.094s.078.969.14 1.133c.063.168.06.367.06.367s.058.035 0 .219c-.06.183-.06.269-.145.273a.434.434 0 0 1-.242-.094c-.07-.055.004-.246.004-.246s-.07-.094-.09-.39c-.02-.297-.168-.97-.168-.97s-.246.196-.43.052c-.183-.149-.152-.426-.07-.692.035-.101-.012-.234.156-.164.164.066.063.207-.008.242-.125.266-.062.43.051.438.223-.16.305-.336.29-.414-.02-.078-.528-6.97-.665-8.258C26.238.3 26.391 0 26.391 0s.125.332.254 1.559c.125 1.23.84 8.011.84 8.011s.12.07.226-.113a.86.86 0 0 0 .09-.508c-.156-.008-.219-.086-.176-.172.043-.09.137-.117.258-.004.125.114.152.47-.016.778a3.93 3.93 0 0 1-.375.543"/>
        <path d="M19.5 13.316s-.004-.015-.008-.043a.13.13 0 0 0 .059-.117.128.128 0 0 0-.11-.11 9.694 9.694 0 0 1-.066-.312c-.012-.054-.098-.109-.11-.168-.046-.222-.035-.48-.085-.757a.096.096 0 0 0 .086-.102c-.008-.05-.051-.09-.102-.082h-.027c-.172-.54-.633-.875-1.094-.992a.094.094 0 0 0-.176-.063l-.012.028c-.015-.004-.03-.004-.046-.008a.39.39 0 0 0-.114-.113c.14-.16-.058-.254-.058-.254s.117-.215.113-.258c-.004-.047-.2-.39-.238-.387-.047.004-.172.356-.176.41-.004.059.039.121.156.246-.086.008-.168.172-.047.262a.329.329 0 0 0-.09.129c-.007.004-.02.004-.027.008l-.008-.012a.09.09 0 0 0-.129-.023.09.09 0 0 0-.039.093c-.457.188-.886.614-.96 1.204l-.02.003a.09.09 0 0 0-.082.102.096.096 0 0 0 .09.086c-.004.297.054.574.043.812 0 .047-.075.09-.078.133l-.012.317c-.047.02-.082.066-.074.12a.122.122 0 0 0 .062.098v.043s-.61.356-.422.496c.586.426 1.32.43 2.13.407 0 0 .015-.172.034-.442.063.262.106.43.106.43.8-.117 1.527-.219 2.035-.738.156-.172-.504-.446-.504-.446"/>
        <g clip-path="url(#3cd7cd3a-cdb4-4cb4-a649-1278ef89ed2e)">
            <path d="M13.012 20.984c-.23-1.8-.75-3.25-1.375-3.675-.168-.329-.328-.504-.469-.48-.125.019-.219.19-.285.487-.262.207-.461.633-.578 1.207h-.024c-.066.008-.105.184-.113.473-.129.39-.184.98-.14 1.656a2.27 2.27 0 0 0-.02.676c-.078.004-.11.117-.11.117s-.187-.101-.226-.093c-.035.003-.297.222-.29.261.009.047.31.149.356.149.047 0 .098-.047.188-.172.011.058.082.11.148.098.043.175.11.335.184.48.152.617.36 1.137.586 1.477.097.308.191.484.261.472h.008c.305.582.653.977.992 1.098.145.246.282.375.403.355.14-.02.242-.238.305-.601.43-.617.425-2.188.199-3.985"/>
        </g>
        <g clip-path="url(#5852145e-4f38-42ae-8ef4-934ff469d3bc)">
            <path d="M28.066 10.922c-.03-.098-.152-.078-.152-.078l.078-.043c.074-.047.102-.29-.082-.278.18-.156.067-.355-.168-.3.07-.094-.015-.211-.086-.243-.066-.03-.34 0-.488.082-.148.079-.438.243-.438.243s-.156-.008-.273.039c-.117.043-.289.363-.305.594a1.54 1.54 0 0 1-.078.093c-.05-.027-.113-.039-.12.055a.352.352 0 0 0-.036.039c-.098-.035-.16.043-.223.117a.579.579 0 0 1-.093.102.207.207 0 0 1-.067.031.203.203 0 0 0-.129.098.571.571 0 0 0-.039.156 7.656 7.656 0 0 1-.402.312c-.442.32-.93.7-.93.7s-.203-.02-.12.156c0 0 .003.004.003.008a1.502 1.502 0 0 0-.113.113c-.23.254-.403.496-.711.625-.215.094-.66.293-.985.45a.304.304 0 0 0-.066-.095c-.05-.043-.23-.02-.461.036a.268.268 0 0 0-.066-.067c-.118-.074-.942.258-1.45.52a4.453 4.453 0 0 0-1.343-.14c-.032-.22-.004-.415-.004-.415s.082-.117.074-.355c.059.066.098.074.148 0 .047-.075.082-.114.13-.204a.868.868 0 0 0 .05-.46c-.035-.118-.098-.149-.21-.032.03-.562.046-1.02-.419-1.39-.465-.371-1.148-.239-1.492.148-.344.387-.3.945-.285 1.305-.098-.09-.149-.121-.18.008-.035.132.055.511.106.593.047.082.113.196.18.082-.009.313.113.426.113.426s.007.274-.032.473l-.027.004-1.094.687s-.144-.062-.457.102c-.078.039-.195.101-.336.172-.343.093-.668.183-.734.226-.043.028-.082.102-.11.2-.101.058-.18.101-.207.124-.113.098-.128.559 0 .82.032.06.055.106.07.141-.062.176-.097.317-.14.399-.238.394-.465.648-.597.887a2.017 2.017 0 0 1-.497.601c-.238.203-.32.36-.488.625-.41.59-.656 1.305-.71 1.469-.06.164-.188.281-.212.387-.027.109-.074.199-.191.402-.113.207-.293.406-.356.504-.066.097-.007.23.04.41.05.18.105.27.105.27s.082.206.223.156c.144.215.3 0 .3 0s.137.101.262-.016c-.059.117-.035.2.024.223.058.023.113-.024.18-.098.066-.074.155-.14.195-.215.039-.074.105-.261.164-.394.054-.133.007-.313-.016-.461-.027-.149-.14-.426-.117-.485.066-.156.254-.328.695-.64.441-.313.719-.656.871-.863.156-.208.238-.477.328-.602.09-.121.27-.352.594-.59.129-.094.234-.2.32-.297v.387c0 .074.043.117.211.14a2.6 2.6 0 0 1 .051.344c0 .114.05.164.277.2-.003.035-.003.074-.007.117v.093c-.004.09-.008.192-.032.258l.036.012c.027-.074.027-.176.03-.27 0-.023 0-.05.005-.07v-.023c0-.04.004-.078.004-.114.023.004.043.008.07.008.012.266-.016.543-.031.809a8.23 8.23 0 0 0-.016.754 1.838 1.838 0 0 0-.137.043c-.086.035-.054.41-.054.41s-.18.43-.204.652c-.003.024-.007.043-.007.063-.004.004-.004.008-.008.008-.086.101-.176.203-.16.34.004.042.02.081.039.12-.082.204-.184.485-.18.633.004.14-.008.532.008.922-.121.414-.254.89-.32 1.54-.102 1.015.058 2.265.043 3.05a.373.373 0 0 0-.145.129c-.008 0-.016.004-.027.008-.04.023-.067.078-.086.187-.016.07-.059.149-.098.227a.789.789 0 0 0-.098.242c-.011.062 0 .117.032.152.02.024.047.04.074.051-.027.152-.02.328.101.395l-.078.23c-.09.016-.183.082-.214.274a.223.223 0 0 0-.047.16.322.322 0 0 0-.157.129.167.167 0 0 0-.007.136.188.188 0 0 0 .058.086 1.117 1.117 0 0 0-.043.282v.187c-.035.004-.074.012-.078.031-.016.047 0 .274 0 .317 0 .015.035.054.078.093 0 .063 0 .13.004.196-.035.004-.066.011-.07.031-.016.043 0 .27 0 .316 0 .016.027.047.066.082v.114c-.031.004-.062.011-.066.027-.016.047 0 .273 0 .316 0 .016.027.047.066.082-.004.157-.004.31-.008.442-.004.137-.007.254-.007.351-.028.004-.047.012-.051.028-.016.043 0 .27 0 .316 0 .012.02.031.047.059v.094s-.133.214.039.359c-.028.09-.051.176-.067.293-.09.035-.136.113-.039.16 0 .004-.004.008-.004.012-.086 0-.152.031-.172.168-.003 0 0 .004-.003.008-.012.007-.028.015-.04.027-.07.066-.16.2-.09.262a2.181 2.181 0 0 1-.179.191 1.01 1.01 0 0 0-.063-.07l-.015-.016-.012.004c-.086.027-.121.105-.156.176 0 .004-.004.008-.004.011a.606.606 0 0 0-.168.04c-.172.066-.422.437-.21.562-.188.004-.243.086-.102.16.175.09.874.207 1.277.137.355-.059.46-.176.62-.195.157-.024.345-.075.477-.184.094-.074-.05-.21-.148-.285.016-.028.027-.059.04-.09a.395.395 0 0 0 .105-.242.826.826 0 0 0-.008-.2c0-.011 0-.023-.004-.03a.213.213 0 0 0 .02-.087c.003-.05 0-.09-.012-.12v-.005c.02-.097.02-.152-.012-.187 0 0-.004 0-.004-.004.004-.012.004-.02.008-.031.039.031.07.09.07.12l.04-.003a.276.276 0 0 0-.098-.156c.015-.059.027-.121.035-.2a.664.664 0 0 0-.024-.199.262.262 0 0 0 .09-.347c.184-.645.426-1.422.59-1.774.082-.18.21-.547.297-.902a.62.62 0 0 1 .027.308l.035.008c.024-.097.004-.246-.043-.39.075-.317.114-.618.051-.75v-.004c.02-.008.035-.02.051-.032.043.051.05.172.016.348a1.32 1.32 0 0 0 .027.668l.039-.008c-.063-.246-.082-.39-.031-.652.015-.07.054-.285-.024-.379a.246.246 0 0 0 .067-.082c.027-.063.027-.113.011-.148-.023-.043-.066-.067-.113-.082.012-.055 0-.133-.113-.204l.012-.117c.117-.039.18-.18.21-.285.02-.012.036-.02.051-.031v.008c0 .082.004.16-.008.195l.036.012c.011-.043.011-.118.011-.207-.004-.012-.004-.024-.004-.036.07-.066.102-.16.106-.28a.743.743 0 0 0 .078-.376.273.273 0 0 0-.016-.23l.086-.336c.11-.422.172-.797.555-1.711.172-.414.29-.813.371-1.168.203.055.356.09.406.098.043.003.168-.012.34-.04.024.118.055.235.086.34.195.645.567 1.551.735 2.332.043.192.09.371.14.54a.28.28 0 0 0-.02.199.743.743 0 0 0 .067.418c-.027.078-.039.16.04.238a.281.281 0 0 0 .105.058c.023.13.086.317.246.332 0 .024.004.055.004.086-.192.13-.055.286-.055.286s-.008.015-.016.039a.085.085 0 0 0-.031-.02c-.035-.012-.074.004-.117.047-.078.078-.02.227.015.32l.012.024c.031.086.067.152.106.222.004.004.004.008.007.012 0 .02.004.04.008.059a1.04 1.04 0 0 0-.008.117c-.007.105-.011.219-.05.285l.03.02a.629.629 0 0 0 .056-.258c.027.16.074.336.12.5.009.062.02.125.028.187l.035.211c.04.29.055.567.063.801h.035a8.048 8.048 0 0 0-.063-.805l-.023-.156c.055.168.11.309.152.402.16.352.399 1.133.582 1.778-.062.105-.07.246.078.32 0 .043 0 .082-.003.117a.063.063 0 0 0-.036-.011.09.09 0 0 0-.078.02.1.1 0 0 0-.027.105.236.236 0 0 0 .105.109c0 .008-.004.012-.007.016-.04.054-.086.12-.063.175.008.028.035.043.078.055a.123.123 0 0 0-.055.09.169.169 0 0 0 .055.129.367.367 0 0 0 0 .113.445.445 0 0 0 .086.172c-.004.016-.004.031-.004.043.004.066.004.129.012.187-.09.032-.195.086-.129.16.105.122.242.254.383.297.144.047.3.325.62.434.36.125 1.02-.078 1.169-.086.137-.008.105-.148-.027-.2v-.019c-.004-.008-.004-.011-.004-.02.125-.105-.118-.355-.258-.433a1.417 1.417 0 0 0-.125-.066c.031-.012.062-.004.101.023l.02-.027c-.066-.055-.121-.043-.172-.02-.004 0-.008 0-.012-.004a1.998 1.998 0 0 1-.093-.097c.007-.031.015-.063.007-.102-.007-.066-.054-.113-.101-.16a.069.069 0 0 1-.016-.02c.004-.058-.039-.144-.078-.195a.12.12 0 0 0-.05-.039c-.028-.07-.055-.137-.134-.183.125-.032.075-.13-.023-.172.012-.028.016-.059.012-.098l-.004-.023-.02.007c-.015.004-.027.004-.039.004-.011 0-.027.004-.039.004a1.03 1.03 0 0 1-.008-.11c-.003-.019-.003-.038-.003-.054l-.004-.012-.008-.007-.059-.012a.196.196 0 0 1-.008-.047c.024-.008.047-.02.07-.027.329-.149.079-.367.079-.367v-.055c.043-.04.074-.07.074-.086 0-.047.016-.274 0-.317-.004-.02-.039-.027-.074-.03-.004-.102-.004-.223-.008-.364-.004-.117-.004-.242-.004-.379.043-.039.078-.074.078-.09 0-.043.012-.27 0-.316-.008-.02-.043-.028-.082-.031v-.102c.047-.04.082-.074.082-.094 0-.043.012-.27 0-.312-.008-.02-.043-.032-.082-.032.004-.066.004-.128.004-.19.047-.044.086-.083.086-.099 0-.046.016-.27 0-.316-.004-.02-.043-.027-.086-.031v-.242c0-.36-.168-.551-.168-.551s.07-.125-.02-.242c-.03-.192-.124-.258-.214-.274-.02-.05-.04-.101-.055-.148.055-.075.066-.188.063-.297a.458.458 0 0 1 .082.246h.035a.488.488 0 0 0-.125-.313 5.625 5.625 0 0 0-.024-.113c.078-.152.024-.512-.082-.625-.011-.148-.12-.223-.195-.262.008-.218.043-.55.105-1.238.098-1.285-.02-2.355-.164-3.055.012-.285.008-.582.012-.757.004-.149-.082-.457-.172-.723 0-.086.008-.164.016-.246.02-.25.039-.488-.125-.742-.012-.02-.031-.043-.047-.067a.792.792 0 0 1-.05-.07l-.013-.035c-.007-.02-.02-.047-.03-.078 0-.035.01-.07.023-.106a.416.416 0 0 0 .023-.12c-.008-.099-.031-.165-.086-.208-.043-.035-.105-.05-.191-.047a1.577 1.577 0 0 0-.028-.058s.047-.285-.023-.336c-.031-.024-.063-.051-.121-.075.015-.273-.067-.984-.047-1.48a1.91 1.91 0 0 1 .094-.43c.16-.035.261-.062.285-.078.047-.031.105-.187.168-.398a.577.577 0 0 0 .16-.035c.125-.063.168-1.036.211-1.61.023-.058.043-.117.062-.176-.015.368.008.641.07.817l.036-.012c-.07-.191-.09-.504-.063-.922.024-.058.043-.11.063-.164.027.137.047.258.047.34h.035a2.024 2.024 0 0 0-.055-.402c.051-.125.098-.23.137-.29.121-.199.262-.222.742-.378a3.98 3.98 0 0 0 1.25-.649c.332-.273.692-.543.938-.683.218-.125.32-.23.78-.684.095.04.138-.02.145-.074l.043-.04a.539.539 0 0 1 .008.087.253.253 0 0 0-.031.035.414.414 0 0 0-.059.164c-.011.04-.02.078-.035.117l.035.016c.016-.043.024-.086.036-.125a.377.377 0 0 1 .054-.149c0-.004 0-.004.004-.007 0 .097-.004.207-.012.289-.003.058-.007.105-.003.132h.035c0-.027.004-.074.008-.132.003-.118.011-.23.007-.325.004 0 .004-.004.008-.004.024-.019.055-.042.07-.078a.473.473 0 0 0 .04-.144c0-.012 0-.024.003-.031.008-.012.02-.02.028-.032.047-.007.074-.023.093-.047a.126.126 0 0 0 .032-.054c.023-.008.039-.02.066-.063.02-.031.02-.054.024-.074.003-.012.011-.016.015-.027.04-.004.07-.012.09-.035a.094.094 0 0 0 .023-.059c.02-.008.04-.016.047-.031.028-.035.02-.086.012-.125 0-.016-.004-.032-.004-.043.004-.012.012-.024.016-.035.004 0 .008 0 .012-.004.043-.008.093-.016.125-.086.011-.024.011-.047.011-.07.02-.012.04-.02.059-.032l.008-.004.004-.008a.8.8 0 0 0 .023-.109c.023-.004.05-.008.07-.027.043-.035.043-.059.043-.094 0-.016 0-.04.012-.07v-.004c.027-.004.059-.012.082-.043a.116.116 0 0 0 .031-.067s.004 0 .004-.004c.047-.015.106-.035.113-.082.004-.027-.011-.046-.027-.058a.141.141 0 0 0 .043-.05.198.198 0 0 0 .012-.067.177.177 0 0 0 .055-.086c.007-.02.007-.04.011-.063a.215.215 0 0 1 .028-.035c.02.012.039.05.046.106l-.003.003c-.004 0-.004.004-.004.004 0 .004-.004.016.004.024.003.008.015.012.023.012l.02.003v-.02c-.004-.077-.028-.136-.063-.163.152-.203.273-.344.34-.41.082-.082.234-.004.375-.102a.92.92 0 0 1 .36-.172c.148-.039.316-.14.39-.183.078-.047.133-.078.101-.176ZM11.875 22.766c.074-.344-.121-.239-.121-.239l.031-.172s.067.075.156.149c.032.215-.066.262-.066.262Zm3.172-.036c-.012-.105.055-.195.125-.277-.016.125-.02.172-.02.172l-.082.188a.324.324 0 0 1-.023-.083Zm-.61 6.45c-.003.015-.011.03-.011.05a.135.135 0 0 0-.031.036.193.193 0 0 1 .043-.086Zm-.23.742c-.023-.027-.031-.07-.023-.121a.816.816 0 0 1 .093-.235c.004-.003.008-.007.008-.015a.615.615 0 0 0 .008.297.667.667 0 0 0-.031.113.196.196 0 0 1-.055-.04Zm-.32 1.387a.123.123 0 0 1 .004-.106.285.285 0 0 1 .132-.11.273.273 0 0 0 .016.044s-.066.078-.117.23a.147.147 0 0 1-.035-.058Zm-.13 4.32a3.577 3.577 0 0 1-.07.125c-.015 0-.03 0-.046.004.02-.094.054-.125.117-.13Zm-.554.578c.024.023.043.047.063.066-.028.028-.055.047-.079.07-.035 0-.07.005-.101.005.027-.059.055-.118.117-.141Zm1.695.047a.368.368 0 0 1-.046.152 1.38 1.38 0 0 0 .027-.304l.012-.02a.82.82 0 0 1 .007.172Zm.004-.488c-.007-.008-.011-.016-.02-.024.009-.023.013-.047.02-.07.004.02.004.05 0 .094Zm1.106-4.512v-.008l.004.004-.004.004Zm.105-.219c.016.027.012.067-.008.117a.244.244 0 0 1-.058.075.139.139 0 0 0-.035-.016c.015-.113-.02-.184-.02-.184s.016-.023.031-.054c.04.015.075.03.09.062Zm.082-.781-.011.012c-.008.004-.02.007-.028.015a.69.69 0 0 0 .016-.082s.008-.004.023-.02v.075Zm.035-.035c0-.028.004-.055.004-.078.016-.02.036-.043.059-.075a.359.359 0 0 1-.063.153Zm3 .05c-.054-.054-.058-.109-.043-.167.055.09.11.14.11.14s0 .028.008.074a.24.24 0 0 1-.075-.046Zm.168 1.188a.072.072 0 0 0-.007-.027c-.032-.082-.086-.22-.028-.278.028-.027.051-.039.07-.039h.012c.012.004.024.02.035.035a.46.46 0 0 0 .02.196.593.593 0 0 0-.027.27 1.917 1.917 0 0 1-.075-.157Zm1.016 3.926a.057.057 0 0 1 .02-.067c.007-.011.023-.011.035-.011h.008c.015 0 .027.008.039.015-.004.059-.012.106-.016.149a.202.202 0 0 1-.086-.086Zm.117.336c-.031-.004-.074-.012-.086-.04-.011-.03.02-.081.051-.124a.37.37 0 0 0 .04.144c.003.008.003.012.007.02h-.004Zm-.004.355a.236.236 0 0 1 0-.074c.02.016.04.031.059.043-.004.047-.004.098-.008.148a.381.381 0 0 1-.05-.117Zm1.41.114c.043.046.086.09.094.144.004.02.004.04 0 .059a1.239 1.239 0 0 1-.129-.18h.004c.012-.008.024-.016.028-.023h.003Zm-.164-.293c-.02-.004-.035-.008-.05-.008l-.078-.145c.074.04.105.09.128.153Zm-.16-.41c.008 0 .02 0 .028-.005a.162.162 0 0 1-.012.063l-.004-.004c-.012 0-.023-.004-.04-.004-.007-.015-.01-.027-.019-.043.016-.008.032-.008.047-.008Zm-.086-.184v.039c.004.02.004.043.004.062-.008-.03-.02-.066-.031-.109.008.004.016.004.027.008Zm-1.011-12.957.043.062c.156.242.14.465.117.723a1.794 1.794 0 0 0-.008.148c-.074-.207-.137-.37-.137-.37s.008-.352-.023-.571l.008.008Zm-.13-.61c.044.032.067.09.071.176a.26.26 0 0 1-.02.11c-.007.015-.011.035-.015.05a12.05 12.05 0 0 0-.184-.379c.067 0 .117.012.149.043Zm5.821-9.324v.004c-.008 0-.012.004-.02.008l.024-.035c-.004.008-.004.015-.004.023Zm.176-.285h-.004.004Zm-.942-.637c.024-.05.063-.062.106-.078a.344.344 0 0 0 .078-.035c.04-.031.07-.07.102-.11.054-.07.097-.124.164-.113a5.3 5.3 0 0 1-.48.442.37.37 0 0 1 .03-.106Zm-.234 2.297v.008c-.004 0-.008 0-.012.004l.012-.012Zm.031.059a.153.153 0 0 1-.047.054.304.304 0 0 0-.007-.062c.015 0 .03-.008.05-.016l.008-.008v-.062c.012-.008.02-.02.031-.027-.003.03-.007.07-.035.12Zm.367-.5.024-.035c.008-.004.016-.004.02-.004 0 .008-.004.015-.012.023a.079.079 0 0 1-.032.016Zm.102-.102c-.004.004-.012.008-.02.012-.003-.012-.003-.02-.007-.031a1.03 1.03 0 0 0 .035-.067c.004.031.008.063-.008.086Zm.156-.289a.113.113 0 0 1-.074.063c.02-.032.043-.063.063-.09.007-.004.011-.008.02-.012a.116.116 0 0 1-.009.04Zm.035-.098.059-.082a1.87 1.87 0 0 0-.012.063.239.239 0 0 1-.047.02Zm.149-.164a.137.137 0 0 1-.043.016c.023-.039.05-.078.074-.113v.031c0 .027 0 .04-.031.066Zm.09-.18v-.003c.004-.012.004-.012.02-.024a.092.092 0 0 0 .034-.023.03.03 0 0 1-.011.023.074.074 0 0 1-.043.028Zm.11-.113a.22.22 0 0 1 .015-.046.092.092 0 0 1 .035-.032c.02.012.023.016.023.028-.004.023-.043.039-.074.05Zm.089-.168a.086.086 0 0 1-.04.047c-.003-.004-.007-.004-.01-.007.01-.02.026-.04.038-.055a.085.085 0 0 1 .02-.012.05.05 0 0 1-.008.027"/>
        </g>
    </g>
</svg>
