<?xml version="1.0" encoding="UTF-8"?>
<svg data-bbox="2.859 0.262 31.497 37.227" height="50" viewBox="0 0 37.5 37.5" width="50" xmlns="http://www.w3.org/2000/svg" data-type="shape">
    <g>
        <defs>
            <clipPath id="c87f0bef-6755-4cc4-a917-73a3f943d612">
                <path d="M2.86 0h31.5v37.008H2.86Zm0 0"/>
            </clipPath>
        </defs>
        <g clip-path="url(#c87f0bef-6755-4cc4-a917-73a3f943d612)">
            <path fill-rule="evenodd" d="M28.262 22.043c-2.961 1.11-8.262-3.41-10.117-4.758.96-2.508 4.175-3.648 9.253-3.66-5.293-9.527-20.078-3.68-14.07 8.012-.312 3.734-1.68 5.578-4.402 8.05 3.8-2.492 4.96-4.378 5.941-7.89-.984-2.18-.113-3.352 1.016-3.586-.996.629-1.438 2.328.765 3.977.32.238.805-.204 1.266-.97-.402.364-.848.727-1.113.454-.688-.707-1.453-2.016.418-1.516-2.235-2.062 2.605-2.027.847 1.926 4.641 5.973 8.239 7.332 16.29 5.816-1.028-2.074-3.864-4.648-6.094-5.855Zm-10.2-5.547c-.09.184-.183.328-.203.54-.843-.9-1.785-1.54-2.879-2.048a8.948 8.948 0 0 1 3.082 1.508Zm.516-.777c-.125.168-.312.394-.418.605-.91-1.074-1.945-1.86-3.16-2.5 1.227.399 2.531 1.024 3.578 1.895Zm9.8 6.699c1.84 1.555 3.009 2.867 3.84 4.582-5.019 1.426-10.195-1.496-13.398-4.8 3.543 4.53 8.2 6.863 14.84 5.277a16.412 16.412 0 0 0-5.281-5.059Zm-13.753.89L13.5 25.755l-.043 4.976c-1.816.27-3.48.973-4.926 2.313 1.707-.988 3.336-1.504 4.918-1.695l-.008 1.035c-2.785-.18-6.757 1.472-10.582 1.922 6.024.293 12.922-2.785 14.29 3.183-.118-3.73-1.551-4.965-3.696-5.105.813-2.613 1.527-6.23 1.172-9.074Zm6.957 8.301c.008.38-.043.727-.156 1.364-.106-1.254-.274-2.82-.477-3.688.301.309.442.625.543 1.024 1.531-2.102-1.058-2.395-2.754-3.875.328-1.016.328-2.032.285-3.051.2.875.422 1.742.247 2.75 2.78 1.539 5.015 2.21 8.476 2.594-2.73.183-3.969-.168-5.176-.57.008 1.234-.047 1.257-.703 2.25a1.706 1.706 0 0 0-.238.59c1.808.269 3.469.976 4.91 2.308-1.719-.992-3.363-1.508-4.957-1.696Zm4.945-18.41c-2.39 0-4.382.383-6.465 1.051 1.29-.895 2.86-1.426 4.633-1.547-.636-1.515-2.71-2.726-5.43-3.402 2.743-.063 5.282.988 7.262 3.898ZM21.645 7.91c-3.137-.902-4.176-1.62-3.633-5.867-.59 2.012-.68 3.867.3 5.379-2.48.004-2.949-.977-2.914-3.992-.28 1.652-.21 3.14.594 4.28-2.328.599-2.914.298-3.597-2.73.097 1.528.464 2.829 1.382 3.665-1.836 1.125-2.195 1.617-3.66-.895.43 1.121.996 2.012 1.84 2.453-1.223 1.442-1.293 2.281-3.184.613.586.73 1.23 1.246 1.977 1.332-.688 1.582-.629 2.176-2.566 1.25.664.48 1.332.766 1.992.684-.254 1.496.148 2.25-1.715 1.945.578.207 1.121.278 1.598.086.058 1.278.464 1.79-1.051 1.992.492.024.933-.043 1.273-.293.2.918.758 1.465-.097 2.083.238-.114.441-.254.582-.434.32.86.754 1.727 1.308 2.594-3.73-9.485 1.094-14.692 9.57-14.145Zm1.312.586c-8.86-1.238-14.285 4.172-10.309 13.832-.195 1.902-1.39 3.082-2.707 4.313 1.036-2.282 2.176-3.438 1.336-4.286-1.101-1.113-2.34-1.863-2.09-2.71-1.34-.977-1.343-1.692-1.14-2.375-.676-.977-.856-1.73-.543-2.254-.465-1.329-.563-2.43.066-2.938-.011-1.937.36-3.008 1.082-3.203.516-2.36 1.176-3.004 1.946-2.828.879-2.258 1.84-3.121 2.84-2.57 1.378-1.883 2.351-2.25 3.148-1.86 1.137-.98 2.32-1.61 3.512-1.254-1.637 2.426-.313 5.274 2.859 8.133Zm4.18 10.14c-.946-.366-1.407-.456-2.004-1.363.25.055.496.106.742.157-.566-.692-1.008-.633-1.73-.328 1.488-1.852 3.601 1.12 4.144-.762.027.414.04 1.113-.332 1.555 1.105 1.164 1.805 2.144 2.445 3.476-.422.215-1.12.379-1.746.25.356-.101.809-.246 1.028-.496-.266-.668-1.282-2.25-2.27-2.582.41.906.676 1.074-.527 2.574-.446-.219-.969-.586-1.414-.949.918-.305 2.433-.57 1.664-1.531Zm.636-4.445c-2.46.16-6.753-.23-8.878 3.051 2.074 1.371 6.21 4.95 9.265 4.512-1.96-.344-4.39-2.527-5.676-3.438 1.262-2.511 4.196-2.214 5.856-2.336.523.715 1.473 2.504 2.254 4.028-.637-1.938-1.375-3.875-2.82-5.817Zm0 0"/>
        </g>
        <path fill-rule="evenodd" d="M15.242 22.816c1.04 1.356 1.52 1.125 2.262.329-.836 1.421-.988 5.597-1.492 9.34.07-3.958.652-5.782-.77-9.669Zm0 0"/>
    </g>
</svg>
