<?xml version="1.0" encoding="UTF-8"?>
<svg data-bbox="0.759 0 28.267 37.5" height="50" viewBox="0 0 37.5 37.5" width="50" xmlns="http://www.w3.org/2000/svg" data-type="color">
    <g>
        <defs>
            <clipPath id="599d523a-e5fb-4b14-8f4c-9d45adda8a87">
                <path d="M.75 0H20v37.008H.75Zm0 0"/>
            </clipPath>
        </defs>
        <g clip-path="url(#599d523a-e5fb-4b14-8f4c-9d45adda8a87)">
            <path d="M13.313 4.664c-6.926 8.488-2.032 17.727-2.032 17.727l-1.386 1.675s3.972 8.774 7.386 10.36v-11.57l-5.539-6.903 6.738 2.238-.828 3.079 1.66 2.238V37.5C9.066 37.5.759 29.105.759 18.75S9.066 0 19.313 0v3.074a6.97 6.97 0 0 0-5.27 2.414l-.73-.824" fill="#231F20" data-color="1"/>
        </g>
        <path d="m27.348 22.39 1.386 1.676s-3.972 8.774-7.39 10.36v-11.57l5.543-6.903-6.739 2.238.829 3.079-1.665 2.238V3.074c2.106 0 3.989.938 5.274 2.414l.73-.824c6.926 8.488 2.032 17.727 2.032 17.727" fill="#231F20" data-color="1"/>
        <path d="m27.348 22.39 1.386 1.676s-3.972 8.774-7.39 10.36v-11.57l5.543-6.903-6.739 2.238.829 3.079-1.665 2.238V3.074c2.106 0 3.989.938 5.274 2.414l.73-.824c6.926 8.488 2.032 17.727 2.032 17.727" fill="#231F20" data-color="1"/>
    </g>
</svg>
