<?xml version="1.0" encoding="UTF-8"?>
<svg data-bbox="2.913 0 31.264 37.486" height="50" viewBox="0 0 37.5 37.5" width="50" xmlns="http://www.w3.org/2000/svg" data-type="shape">
    <g>
        <defs>
            <clipPath id="a3f0fe70-c463-42be-bd9c-8bc9266be7db">
                <path d="M3.14 0h31.22v37.008H3.14Zm0 0"/>
            </clipPath>
        </defs>
        <g clip-path="url(#a3f0fe70-c463-42be-bd9c-8bc9266be7db)">
            <path d="m5.273 27.508 2.891-1.653a.58.58 0 0 0 .262-.507C7.332 14.168 14.645 7.773 19.828 7.383c5.074-.38 8.102.969 10.672 3.539a.795.795 0 0 1 .203.586l-.05.515c-.04.332.038.66.202.938l3.133 5.203c.34.57.203 1.375-.265 1.84-.38.371-.606.77-.598.933.023.356-.05.708-.5.938-.453.234-.527.04-.89.098-.403.074-.801.136-1.165-.133-.363-.27-1.41-1.832-3.261-2.625-1.801-.781-6.149-1.723-6.383-5.524-.016-.187-.063-.195-.11-.015-.21.867-.453 3.32 2.739 5.082.12.066.199.23.168.367-.18.781-.672 3.27-.098 5.79.031.132.16.312.281.378.754.465 3.38 1.965 5.989 2.234.144.016.218.13.175.266-.87 2.562-1.492 5.45-1.21 9.46.007.142-.098.247-.235.231-3.465-.402-9.215-3.664-11.816-6.843a.296.296 0 0 1 .023-.383 3.49 3.49 0 0 0 .93-2.375c0-1.95-1.594-3.524-3.555-3.524-1.96 0-3.555 1.582-3.555 3.524 0 .555.13 1.094.38 1.59.058.125.007.222-.137.222H5.332a.253.253 0 0 1-.254-.254v-1.55a.373.373 0 0 1 .195-.383ZM28.82 12.176c.008 0 .008-.016.008-.016-.34-.953-1.64-.719-2.398-1.043-.016-.008-.02.008-.02.016.27.922 1.82 1.336 2.41 1.043ZM2.922 22.796c0-.1.082-.214.187-.245l1.34-.418c.024-.008.031-.031.024-.047a.061.061 0 0 0-.032-.031l-1.293-.117a.202.202 0 0 1-.183-.211c.039-.75.098-1.606.207-2.52a.202.202 0 0 1 .21-.18l1.083.047c.023 0 .035-.015.035-.039a.048.048 0 0 0-.02-.039l-1.046-.457a.264.264 0 0 1-.149-.262 33.48 33.48 0 0 1 .656-3.418c.024-.105.13-.148.227-.113l1.043.422c.016.008.039 0 .047-.023.008-.016 0-.032-.008-.04l-.969-.882a.343.343 0 0 1-.09-.317c.13-.457.266-.914.414-1.37a.204.204 0 0 1 .243-.13l1.629.48c.007 0 .023 0 .023-.015 0-.008 0-.02-.008-.02l-1.515-.828a.245.245 0 0 1-.106-.27c.04-.108.086-.214.121-.327a.2.2 0 0 1 .25-.114l.574.211c.04.016.079-.007.086-.039.008-.02.008-.035-.007-.058l-.45-.711a.447.447 0 0 1-.027-.34c.203-.48.43-.957.672-1.43a14.66 14.66 0 0 1 2.383-3.414.186.186 0 0 1 .265-.008l1.293 1.262c.016.016.04.016.055 0 .004-.008.012-.031.004-.039L9.305 4.95a.284.284 0 0 1 .062-.308 16.586 16.586 0 0 1 3.297-2.317.257.257 0 0 1 .3.051l1.348 1.434c.032.03.075.03.098 0a.084.084 0 0 0 .024-.051l-.075-2.035c-.007-.102.075-.223.172-.262.211-.082.434-.164.653-.238a.17.17 0 0 1 .226.12l.567 2.419c.007.015.023.031.039.023.015 0 .023-.015.023-.027l.3-2.73a.31.31 0 0 1 .204-.239 23.773 23.773 0 0 1 5.91-.79c.106 0 .195.082.195.188l.055 1.37c0 .024.02.047.043.047.016 0 .031-.007.04-.03l.65-1.395a.294.294 0 0 1 .27-.164c2.36.082 4.871.457 7.488 1.168.106.03.145.129.102.226l-3.035 6.156a.179.179 0 0 1-.25.075c-1.793-1.012-3.895-1.567-6.602-1.598a21.976 21.976 0 0 0-1.93.066c-5.597.43-13.05 7.004-12.414 18.227a.322.322 0 0 1-.16.277l-3.773 1.91c-.09.047-.176 0-.176-.105a73.82 73.82 0 0 1-.035-3.621Zm0 0"/>
        </g>
    </g>
</svg>
